<?xml version="1.0" encoding="UTF-8" standalone="no"?>
<!DOCTYPE svg PUBLIC "-//W3C//DTD SVG 1.1//EN"
 "http://www.w3.org/Graphics/SVG/1.1/DTD/svg11.dtd">
<!-- Generated by graphviz version 10.0.1 (20240210.2158)
 -->
<!-- Title: G Pages: 1 -->
<svg width="283pt" height="260pt"
 viewBox="0.00 0.00 283.22 260.00" xmlns="http://www.w3.org/2000/svg" xmlns:xlink="http://www.w3.org/1999/xlink">
<g id="graph0" class="graph" transform="scale(1 1) rotate(0) translate(4 256)">
<title>G</title>
<polygon fill="white" stroke="none" points="-4,4 -4,-256 279.22,-256 279.22,4 -4,4"/>
<!-- 1 -->
<g id="node1" class="node">
<title>1</title>
<ellipse fill="none" stroke="black" cx="28.11" cy="-18" rx="27" ry="18"/>
<text text-anchor="middle" x="28.11" y="-12.57" font-family="Times New Roman,serif" font-size="14.00">n</text>
</g>
<!-- 2 -->
<g id="node2" class="node">
<title>2</title>
<ellipse fill="none" stroke="black" cx="28.11" cy="-90" rx="28.11" ry="18"/>
<text text-anchor="middle" x="28.11" y="-84.58" font-family="Times New Roman,serif" font-size="14.00">EXP</text>
</g>
<!-- 2&#45;&gt;1 -->
<g id="edge1" class="edge">
<title>2&#45;&gt;1</title>
<path fill="none" stroke="black" d="M28.11,-71.7C28.11,-64.41 28.11,-55.73 28.11,-47.54"/>
<polygon fill="black" stroke="black" points="31.61,-47.62 28.11,-37.62 24.61,-47.62 31.61,-47.62"/>
</g>
<!-- 3 -->
<g id="node3" class="node">
<title>3</title>
<ellipse fill="none" stroke="black" cx="101.11" cy="-90" rx="27" ry="18"/>
<text text-anchor="middle" x="101.11" y="-84.58" font-family="Times New Roman,serif" font-size="14.00">+</text>
</g>
<!-- 4 -->
<g id="node4" class="node">
<title>4</title>
<ellipse fill="none" stroke="black" cx="174.11" cy="-18" rx="27" ry="18"/>
<text text-anchor="middle" x="174.11" y="-12.57" font-family="Times New Roman,serif" font-size="14.00">n</text>
</g>
<!-- 5 -->
<g id="node5" class="node">
<title>5</title>
<ellipse fill="none" stroke="black" cx="174.11" cy="-90" rx="28.11" ry="18"/>
<text text-anchor="middle" x="174.11" y="-84.58" font-family="Times New Roman,serif" font-size="14.00">EXP</text>
</g>
<!-- 5&#45;&gt;4 -->
<g id="edge2" class="edge">
<title>5&#45;&gt;4</title>
<path fill="none" stroke="black" d="M174.11,-71.7C174.11,-64.41 174.11,-55.73 174.11,-47.54"/>
<polygon fill="black" stroke="black" points="177.61,-47.62 174.11,-37.62 170.61,-47.62 177.61,-47.62"/>
</g>
<!-- 6 -->
<g id="node6" class="node">
<title>6</title>
<ellipse fill="none" stroke="black" cx="101.11" cy="-162" rx="28.11" ry="18"/>
<text text-anchor="middle" x="101.11" y="-156.57" font-family="Times New Roman,serif" font-size="14.00">EXP</text>
</g>
<!-- 6&#45;&gt;2 -->
<g id="edge3" class="edge">
<title>6&#45;&gt;2</title>
<path fill="none" stroke="black" d="M85.98,-146.5C76,-136.92 62.72,-124.19 51.4,-113.34"/>
<polygon fill="black" stroke="black" points="53.95,-110.93 44.31,-106.53 49.1,-115.98 53.95,-110.93"/>
</g>
<!-- 6&#45;&gt;3 -->
<g id="edge4" class="edge">
<title>6&#45;&gt;3</title>
<path fill="none" stroke="black" d="M101.11,-143.7C101.11,-136.41 101.11,-127.73 101.11,-119.54"/>
<polygon fill="black" stroke="black" points="104.61,-119.62 101.11,-109.62 97.61,-119.62 104.61,-119.62"/>
</g>
<!-- 6&#45;&gt;5 -->
<g id="edge5" class="edge">
<title>6&#45;&gt;5</title>
<path fill="none" stroke="black" d="M116.24,-146.5C126.22,-136.92 139.5,-124.19 150.82,-113.34"/>
<polygon fill="black" stroke="black" points="153.12,-115.98 157.91,-106.53 148.27,-110.93 153.12,-115.98"/>
</g>
<!-- 7 -->
<g id="node7" class="node">
<title>7</title>
<ellipse fill="none" stroke="black" cx="174.11" cy="-162" rx="27" ry="18"/>
<text text-anchor="middle" x="174.11" y="-156.57" font-family="Times New Roman,serif" font-size="14.00">+</text>
</g>
<!-- 8 -->
<g id="node8" class="node">
<title>8</title>
<ellipse fill="none" stroke="black" cx="247.11" cy="-90" rx="27" ry="18"/>
<text text-anchor="middle" x="247.11" y="-84.58" font-family="Times New Roman,serif" font-size="14.00">n</text>
</g>
<!-- 9 -->
<g id="node9" class="node">
<title>9</title>
<ellipse fill="none" stroke="black" cx="247.11" cy="-162" rx="28.11" ry="18"/>
<text text-anchor="middle" x="247.11" y="-156.57" font-family="Times New Roman,serif" font-size="14.00">EXP</text>
</g>
<!-- 9&#45;&gt;8 -->
<g id="edge6" class="edge">
<title>9&#45;&gt;8</title>
<path fill="none" stroke="black" d="M247.11,-143.7C247.11,-136.41 247.11,-127.73 247.11,-119.54"/>
<polygon fill="black" stroke="black" points="250.61,-119.62 247.11,-109.62 243.61,-119.62 250.61,-119.62"/>
</g>
<!-- 10 -->
<g id="node10" class="node">
<title>10</title>
<ellipse fill="none" stroke="black" cx="174.11" cy="-234" rx="28.11" ry="18"/>
<text text-anchor="middle" x="174.11" y="-228.57" font-family="Times New Roman,serif" font-size="14.00">EXP</text>
</g>
<!-- 10&#45;&gt;6 -->
<g id="edge7" class="edge">
<title>10&#45;&gt;6</title>
<path fill="none" stroke="black" d="M158.98,-218.5C149,-208.92 135.72,-196.19 124.4,-185.34"/>
<polygon fill="black" stroke="black" points="126.95,-182.93 117.31,-178.53 122.1,-187.98 126.95,-182.93"/>
</g>
<!-- 10&#45;&gt;7 -->
<g id="edge8" class="edge">
<title>10&#45;&gt;7</title>
<path fill="none" stroke="black" d="M174.11,-215.7C174.11,-208.41 174.11,-199.73 174.11,-191.54"/>
<polygon fill="black" stroke="black" points="177.61,-191.62 174.11,-181.62 170.61,-191.62 177.61,-191.62"/>
</g>
<!-- 10&#45;&gt;9 -->
<g id="edge9" class="edge">
<title>10&#45;&gt;9</title>
<path fill="none" stroke="black" d="M189.24,-218.5C199.22,-208.92 212.5,-196.19 223.82,-185.34"/>
<polygon fill="black" stroke="black" points="226.12,-187.98 230.91,-178.53 221.27,-182.93 226.12,-187.98"/>
</g>
</g>
</svg>
