<?xml version="1.0" encoding="UTF-8" standalone="no"?>
<!DOCTYPE svg PUBLIC "-//W3C//DTD SVG 1.1//EN"
 "http://www.w3.org/Graphics/SVG/1.1/DTD/svg11.dtd">
<!-- Generated by graphviz version 2.43.0 (0)
 -->
<!-- Title: G Pages: 1 -->
<svg width="297pt" height="260pt"
 viewBox="0.00 0.00 297.09 260.00" xmlns="http://www.w3.org/2000/svg" xmlns:xlink="http://www.w3.org/1999/xlink">
<g id="graph0" class="graph" transform="scale(1 1) rotate(0) translate(4 256)">
<title>G</title>
<polygon fill="white" stroke="transparent" points="-4,4 -4,-256 293.09,-256 293.09,4 -4,4"/>
<!-- 0 -->
<g id="node1" class="node">
<title>0</title>
<ellipse fill="none" stroke="black" cx="30.55" cy="-90" rx="27" ry="18"/>
<text text-anchor="middle" x="30.55" y="-86.3" font-family="Times,serif" font-size="14.00">n</text>
</g>
<!-- 1 -->
<g id="node2" class="node">
<title>1</title>
<ellipse fill="none" stroke="black" cx="30.55" cy="-162" rx="30.59" ry="18"/>
<text text-anchor="middle" x="30.55" y="-158.3" font-family="Times,serif" font-size="14.00">EXP</text>
</g>
<!-- 1&#45;&gt;0 -->
<g id="edge1" class="edge">
<title>1&#45;&gt;0</title>
<path fill="none" stroke="black" d="M30.55,-143.7C30.55,-135.98 30.55,-126.71 30.55,-118.11"/>
<polygon fill="black" stroke="black" points="34.05,-118.1 30.55,-108.1 27.05,-118.1 34.05,-118.1"/>
</g>
<!-- 2 -->
<g id="node3" class="node">
<title>2</title>
<ellipse fill="none" stroke="black" cx="106.55" cy="-162" rx="27" ry="18"/>
<text text-anchor="middle" x="106.55" y="-158.3" font-family="Times,serif" font-size="14.00">+</text>
</g>
<!-- 3 -->
<g id="node4" class="node">
<title>3</title>
<ellipse fill="none" stroke="black" cx="106.55" cy="-18" rx="27" ry="18"/>
<text text-anchor="middle" x="106.55" y="-14.3" font-family="Times,serif" font-size="14.00">n</text>
</g>
<!-- 4 -->
<g id="node5" class="node">
<title>4</title>
<ellipse fill="none" stroke="black" cx="106.55" cy="-90" rx="30.59" ry="18"/>
<text text-anchor="middle" x="106.55" y="-86.3" font-family="Times,serif" font-size="14.00">EXP</text>
</g>
<!-- 4&#45;&gt;3 -->
<g id="edge2" class="edge">
<title>4&#45;&gt;3</title>
<path fill="none" stroke="black" d="M106.55,-71.7C106.55,-63.98 106.55,-54.71 106.55,-46.11"/>
<polygon fill="black" stroke="black" points="110.05,-46.1 106.55,-36.1 103.05,-46.1 110.05,-46.1"/>
</g>
<!-- 5 -->
<g id="node6" class="node">
<title>5</title>
<ellipse fill="none" stroke="black" cx="182.55" cy="-90" rx="27" ry="18"/>
<text text-anchor="middle" x="182.55" y="-86.3" font-family="Times,serif" font-size="14.00">*</text>
</g>
<!-- 6 -->
<g id="node7" class="node">
<title>6</title>
<ellipse fill="none" stroke="black" cx="258.55" cy="-18" rx="27" ry="18"/>
<text text-anchor="middle" x="258.55" y="-14.3" font-family="Times,serif" font-size="14.00">n</text>
</g>
<!-- 7 -->
<g id="node8" class="node">
<title>7</title>
<ellipse fill="none" stroke="black" cx="258.55" cy="-90" rx="30.59" ry="18"/>
<text text-anchor="middle" x="258.55" y="-86.3" font-family="Times,serif" font-size="14.00">EXP</text>
</g>
<!-- 7&#45;&gt;6 -->
<g id="edge3" class="edge">
<title>7&#45;&gt;6</title>
<path fill="none" stroke="black" d="M258.55,-71.7C258.55,-63.98 258.55,-54.71 258.55,-46.11"/>
<polygon fill="black" stroke="black" points="262.05,-46.1 258.55,-36.1 255.05,-46.1 262.05,-46.1"/>
</g>
<!-- 8 -->
<g id="node9" class="node">
<title>8</title>
<ellipse fill="none" stroke="black" cx="182.55" cy="-162" rx="30.59" ry="18"/>
<text text-anchor="middle" x="182.55" y="-158.3" font-family="Times,serif" font-size="14.00">EXP</text>
</g>
<!-- 8&#45;&gt;4 -->
<g id="edge4" class="edge">
<title>8&#45;&gt;4</title>
<path fill="none" stroke="black" d="M166.8,-146.5C156.1,-136.64 141.77,-123.44 129.76,-112.38"/>
<polygon fill="black" stroke="black" points="132,-109.69 122.27,-105.49 127.26,-114.83 132,-109.69"/>
</g>
<!-- 8&#45;&gt;5 -->
<g id="edge5" class="edge">
<title>8&#45;&gt;5</title>
<path fill="none" stroke="black" d="M182.55,-143.7C182.55,-135.98 182.55,-126.71 182.55,-118.11"/>
<polygon fill="black" stroke="black" points="186.05,-118.1 182.55,-108.1 179.05,-118.1 186.05,-118.1"/>
</g>
<!-- 8&#45;&gt;7 -->
<g id="edge6" class="edge">
<title>8&#45;&gt;7</title>
<path fill="none" stroke="black" d="M198.29,-146.5C208.99,-136.64 223.33,-123.44 235.33,-112.38"/>
<polygon fill="black" stroke="black" points="237.84,-114.83 242.82,-105.49 233.09,-109.69 237.84,-114.83"/>
</g>
<!-- 9 -->
<g id="node10" class="node">
<title>9</title>
<ellipse fill="none" stroke="black" cx="106.55" cy="-234" rx="30.59" ry="18"/>
<text text-anchor="middle" x="106.55" y="-230.3" font-family="Times,serif" font-size="14.00">EXP</text>
</g>
<!-- 9&#45;&gt;1 -->
<g id="edge7" class="edge">
<title>9&#45;&gt;1</title>
<path fill="none" stroke="black" d="M90.8,-218.5C80.1,-208.64 65.77,-195.44 53.76,-184.38"/>
<polygon fill="black" stroke="black" points="56,-181.69 46.27,-177.49 51.26,-186.83 56,-181.69"/>
</g>
<!-- 9&#45;&gt;2 -->
<g id="edge8" class="edge">
<title>9&#45;&gt;2</title>
<path fill="none" stroke="black" d="M106.55,-215.7C106.55,-207.98 106.55,-198.71 106.55,-190.11"/>
<polygon fill="black" stroke="black" points="110.05,-190.1 106.55,-180.1 103.05,-190.1 110.05,-190.1"/>
</g>
<!-- 9&#45;&gt;8 -->
<g id="edge9" class="edge">
<title>9&#45;&gt;8</title>
<path fill="none" stroke="black" d="M122.29,-218.5C132.99,-208.64 147.33,-195.44 159.33,-184.38"/>
<polygon fill="black" stroke="black" points="161.84,-186.83 166.82,-177.49 157.09,-181.69 161.84,-186.83"/>
</g>
</g>
</svg>
